# xmcd
#
# Track frame offsets: 
#        150
#        15448
#        29658
#        41496
#        62375
#        74949
#        89343
#        104148
#        118607
#        132766
#        149051
#        169219
#        181770
#        209634
#        225772
#        239098
#        240643
#        261657
#        273626
#        279473
#        297994
#        312878
#        318617
#
# Disc length: 4641 seconds
#
# Revision: 0
# Processed by: cddbd v1.5.2PL0 Copyright (c) Steve Scherf et al.
# Submitted via: ExactAudioCopy v0.99pb3
#
DISCID=6e121f17
DTITLE=Олег Медведев - Ты становишься волком
DYEAR=2005
DGENRE=Acoustic
TTITLE0=Браво, парень!
TTITLE1=Религия
TTITLE2=Карлсоны
TTITLE3=Алые крылья
TTITLE4=Форнит
TTITLE5=Машинист
TTITLE6=Кайнозой
TTITLE7=Идиотский марш
TTITLE8=Марш небесных связистов
TTITLE9=Здравствуй, казак!
TTITLE10=Зеленая дверь
TTITLE11=Не заходи за черту
TTITLE12=Баллада о кроликах
TTITLE13=Таблетки от счастья
TTITLE14=Журавлик
TTITLE15=Интро
TTITLE16=Несмеянин день
TTITLE17=Сердце змеи
TTITLE18=Ответы на вопросы
TTITLE19=Пятьсот веселый
TTITLE20=Вальс гемоглобин
TTITLE21=Ответы на вопросы 2
TTITLE22=Поезд на Сурхарбан
EXTD=
EXTT0=
EXTT1=
EXTT2=
EXTT3=
EXTT4=
EXTT5=
EXTT6=
EXTT7=
EXTT8=
EXTT9=
EXTT10=
EXTT11=
EXTT12=
EXTT13=
EXTT14=
EXTT15=
EXTT16=
EXTT17=
EXTT18=
EXTT19=
EXTT20=
EXTT21=
EXTT22=
PLAYORDER=
